# xmcd
#
# Track frame offsets: 
#        150
#        15536
#        31419
#        47795
#        61139
#        76909
#        94694
#        111510
#
# Disc length: 1763 seconds
#
# Revision: 0
# Processed by: cddbd v1.5.2PL0 Copyright (c) Steve Scherf et al.
# Submitted via: ExactAudioCopy v0.95b4
#
DISCID=5c06e108
DTITLE=Daryle Singletary - Live Concert Walt Disney Orlando
DYEAR=1998
DGENRE=Country
TTITLE0=Liar, Liar
TTITLE1=Ordinary Heroes
TTITLE2=That's Where You're Wrong
TTITLE3=Low Expectations
TTITLE4=Amen Kind Of Love
TTITLE5=I Let Her Lie
TTITLE6=The Note
TTITLE7=Ain't It The Truth
EXTD=
EXTT0=
EXTT1=
EXTT2=
EXTT3=
EXTT4=
EXTT5=
EXTT6=
EXTT7=
PLAYORDER=
